<svg xmlns="http://www.w3.org/2000/svg" width="855" height="338" viewBox="0 0 855 338">
<rect width="100%" height="100%" fill="white"/>
<text x="24" y="28" font-family="Arial" font-size="18" font-weight="700">Dimension means (% of available points)</text>
<text x="231.0" y="42" text-anchor="middle" font-family="Arial" font-size="10" fill="#333">Scientific fidelity</text>
<text x="323.0" y="42" text-anchor="middle" font-family="Arial" font-size="10" fill="#333">Article structure</text>
<text x="415.0" y="42" text-anchor="middle" font-family="Arial" font-size="10" fill="#333">Reader orientation</text>
<text x="507.0" y="42" text-anchor="middle" font-family="Arial" font-size="10" fill="#333">Cohesion/coherence</text>
<text x="599.0" y="42" text-anchor="middle" font-family="Arial" font-size="10" fill="#333">Evidence/uncertainty</text>
<text x="691.0" y="42" text-anchor="middle" font-family="Arial" font-size="10" fill="#333">Style/readability</text>
<text x="783.0" y="42" text-anchor="middle" font-family="Arial" font-size="10" fill="#333">Constraint following</text>
<text x="24" y="82" font-family="Arial" font-size="12" font-weight="700">C1</text>
<text x="55" y="82" font-family="Arial" font-size="11" fill="#444">Reader-aware writing</text>
<rect x="185" y="56" width="90" height="40" fill="#4e85a5" rx="3"/>
<text x="231.0" y="81" text-anchor="middle" font-family="Arial" font-size="12" fill="white">97.3</text>
<rect x="277" y="56" width="90" height="40" fill="#78a2bb" rx="3"/>
<text x="323.0" y="81" text-anchor="middle" font-family="Arial" font-size="12" fill="white">93.8</text>
<rect x="369" y="56" width="90" height="40" fill="#4e85a5" rx="3"/>
<text x="415.0" y="81" text-anchor="middle" font-family="Arial" font-size="12" fill="white">97.3</text>
<rect x="461" y="56" width="90" height="40" fill="#729db8" rx="3"/>
<text x="507.0" y="81" text-anchor="middle" font-family="Arial" font-size="12" fill="white">94.3</text>
<rect x="553" y="56" width="90" height="40" fill="#4981a3" rx="3"/>
<text x="599.0" y="81" text-anchor="middle" font-family="Arial" font-size="12" fill="white">97.8</text>
<rect x="645" y="56" width="90" height="40" fill="#7ea6be" rx="3"/>
<text x="691.0" y="81" text-anchor="middle" font-family="Arial" font-size="12" fill="white">93.3</text>
<rect x="737" y="56" width="90" height="40" fill="#7ea6be" rx="3"/>
<text x="783.0" y="81" text-anchor="middle" font-family="Arial" font-size="12" fill="white">93.3</text>
<text x="24" y="124" font-family="Arial" font-size="12" font-weight="700">C3</text>
<text x="55" y="124" font-family="Arial" font-size="11" fill="#444">Scientific-writing representative</text>
<rect x="185" y="98" width="90" height="40" fill="#5e90ae" rx="3"/>
<text x="231.0" y="123" text-anchor="middle" font-family="Arial" font-size="12" fill="white">96.0</text>
<rect x="277" y="98" width="90" height="40" fill="#5388a8" rx="3"/>
<text x="323.0" y="123" text-anchor="middle" font-family="Arial" font-size="12" fill="white">96.9</text>
<rect x="369" y="98" width="90" height="40" fill="#6393b0" rx="3"/>
<text x="415.0" y="123" text-anchor="middle" font-family="Arial" font-size="12" fill="white">95.6</text>
<rect x="461" y="98" width="90" height="40" fill="#7ea6be" rx="3"/>
<text x="507.0" y="123" text-anchor="middle" font-family="Arial" font-size="12" fill="white">93.3</text>
<rect x="553" y="98" width="90" height="40" fill="#588cab" rx="3"/>
<text x="599.0" y="123" text-anchor="middle" font-family="Arial" font-size="12" fill="white">96.4</text>
<rect x="645" y="98" width="90" height="40" fill="#a5c1d2" rx="3"/>
<text x="691.0" y="123" text-anchor="middle" font-family="Arial" font-size="12" fill="#222">90.0</text>
<rect x="737" y="98" width="90" height="40" fill="#adc6d6" rx="3"/>
<text x="783.0" y="123" text-anchor="middle" font-family="Arial" font-size="12" fill="#222">89.3</text>
<text x="24" y="166" font-family="Arial" font-size="12" font-weight="700">C5</text>
<text x="55" y="166" font-family="Arial" font-size="11" fill="#444">Academic writing standards</text>
<rect x="185" y="140" width="90" height="40" fill="#6292b0" rx="3"/>
<text x="231.0" y="165" text-anchor="middle" font-family="Arial" font-size="12" fill="white">95.7</text>
<rect x="277" y="140" width="90" height="40" fill="#6393b0" rx="3"/>
<text x="323.0" y="165" text-anchor="middle" font-family="Arial" font-size="12" fill="white">95.6</text>
<rect x="369" y="140" width="90" height="40" fill="#6e9bb6" rx="3"/>
<text x="415.0" y="165" text-anchor="middle" font-family="Arial" font-size="12" fill="white">94.7</text>
<rect x="461" y="140" width="90" height="40" fill="#7ea6be" rx="3"/>
<text x="507.0" y="165" text-anchor="middle" font-family="Arial" font-size="12" fill="white">93.3</text>
<rect x="553" y="140" width="90" height="40" fill="#5e90ad" rx="3"/>
<text x="599.0" y="165" text-anchor="middle" font-family="Arial" font-size="12" fill="white">96.0</text>
<rect x="645" y="140" width="90" height="40" fill="#a5c1d2" rx="3"/>
<text x="691.0" y="165" text-anchor="middle" font-family="Arial" font-size="12" fill="#222">90.0</text>
<rect x="737" y="140" width="90" height="40" fill="#8eb1c6" rx="3"/>
<text x="783.0" y="165" text-anchor="middle" font-family="Arial" font-size="12" fill="#222">92.0</text>
<text x="24" y="208" font-family="Arial" font-size="12" font-weight="700">C4</text>
<text x="55" y="208" font-family="Arial" font-size="11" fill="#444">Scientific-writing alternative</text>
<rect x="185" y="182" width="90" height="40" fill="#6695b2" rx="3"/>
<text x="231.0" y="207" text-anchor="middle" font-family="Arial" font-size="12" fill="white">95.3</text>
<rect x="277" y="182" width="90" height="40" fill="#83a9c1" rx="3"/>
<text x="323.0" y="207" text-anchor="middle" font-family="Arial" font-size="12" fill="#222">92.9</text>
<rect x="369" y="182" width="90" height="40" fill="#78a2bb" rx="3"/>
<text x="415.0" y="207" text-anchor="middle" font-family="Arial" font-size="12" fill="white">93.8</text>
<rect x="461" y="182" width="90" height="40" fill="#8eb1c6" rx="3"/>
<text x="507.0" y="207" text-anchor="middle" font-family="Arial" font-size="12" fill="#222">92.0</text>
<rect x="553" y="182" width="90" height="40" fill="#6e9bb6" rx="3"/>
<text x="599.0" y="207" text-anchor="middle" font-family="Arial" font-size="12" fill="white">94.7</text>
<rect x="645" y="182" width="90" height="40" fill="#adc6d6" rx="3"/>
<text x="691.0" y="207" text-anchor="middle" font-family="Arial" font-size="12" fill="#222">89.3</text>
<rect x="737" y="182" width="90" height="40" fill="#bdd1de" rx="3"/>
<text x="783.0" y="207" text-anchor="middle" font-family="Arial" font-size="12" fill="#222">88.0</text>
<text x="24" y="250" font-family="Arial" font-size="12" font-weight="700">C2</text>
<text x="55" y="250" font-family="Arial" font-size="11" fill="#444">No-skill baseline</text>
<rect x="185" y="224" width="90" height="40" fill="#6292b0" rx="3"/>
<text x="231.0" y="249" text-anchor="middle" font-family="Arial" font-size="12" fill="white">95.7</text>
<rect x="277" y="224" width="90" height="40" fill="#edf2f7" rx="3"/>
<text x="323.0" y="249" text-anchor="middle" font-family="Arial" font-size="12" fill="#222">81.3</text>
<rect x="369" y="224" width="90" height="40" fill="#7ea6be" rx="3"/>
<text x="415.0" y="249" text-anchor="middle" font-family="Arial" font-size="12" fill="white">93.3</text>
<rect x="461" y="224" width="90" height="40" fill="#729db8" rx="3"/>
<text x="507.0" y="249" text-anchor="middle" font-family="Arial" font-size="12" fill="white">94.3</text>
<rect x="553" y="224" width="90" height="40" fill="#588cab" rx="3"/>
<text x="599.0" y="249" text-anchor="middle" font-family="Arial" font-size="12" fill="white">96.4</text>
<rect x="645" y="224" width="90" height="40" fill="#86abc2" rx="3"/>
<text x="691.0" y="249" text-anchor="middle" font-family="Arial" font-size="12" fill="#222">92.7</text>
<rect x="737" y="224" width="90" height="40" fill="#edf2f7" rx="3"/>
<text x="783.0" y="249" text-anchor="middle" font-family="Arial" font-size="12" fill="#222">81.3</text>
</svg>