<svg xmlns="http://www.w3.org/2000/svg" width="760" height="430" viewBox="0 0 760 430">
<rect width="100%" height="100%" fill="white"/>
<text x="24" y="28" font-family="Arial" font-size="18" font-weight="700">Mean total score by condition</text>
<line x1="88" y1="342.0" x2="732" y2="342.0" stroke="#e6e6e6"/>
<text x="78" y="346.0" text-anchor="end" font-family="Arial" font-size="11" fill="#555">90</text>
<line x1="88" y1="267.5" x2="732" y2="267.5" stroke="#e6e6e6"/>
<text x="78" y="271.5" text-anchor="end" font-family="Arial" font-size="11" fill="#555">92</text>
<line x1="88" y1="193.0" x2="732" y2="193.0" stroke="#e6e6e6"/>
<text x="78" y="197.0" text-anchor="end" font-family="Arial" font-size="11" fill="#555">94</text>
<line x1="88" y1="118.5" x2="732" y2="118.5" stroke="#e6e6e6"/>
<text x="78" y="122.5" text-anchor="end" font-family="Arial" font-size="11" fill="#555">96</text>
<line x1="88" y1="44.0" x2="732" y2="44.0" stroke="#e6e6e6"/>
<text x="78" y="48.0" text-anchor="end" font-family="Arial" font-size="11" fill="#555">98</text>
<rect x="112.5" y="130.9" width="79.9" height="211.1" fill="#2E6F95" rx="3"/>
<line x1="152.4" y1="83.0" x2="152.4" y2="178.8" stroke="#333" stroke-width="1.5"/>
<line x1="145.4" y1="83.0" x2="159.4" y2="83.0" stroke="#333" stroke-width="1.5"/>
<line x1="145.4" y1="178.8" x2="159.4" y2="178.8" stroke="#333" stroke-width="1.5"/>
<text x="152.4" y="122.9" text-anchor="middle" font-family="Arial" font-size="12" fill="#222">95.67</text>
<text x="152.4" y="372" text-anchor="middle" font-family="Arial" font-size="12" font-weight="700">C1</text>
<text x="152.4" y="391" text-anchor="middle" font-family="Arial" font-size="10" fill="#444">Reader-aware writing</text>
<rect x="241.3" y="168.2" width="79.9" height="173.8" fill="#00A676" rx="3"/>
<line x1="281.2" y1="134.6" x2="281.2" y2="201.8" stroke="#333" stroke-width="1.5"/>
<line x1="274.2" y1="134.6" x2="288.2" y2="134.6" stroke="#333" stroke-width="1.5"/>
<line x1="274.2" y1="201.8" x2="288.2" y2="201.8" stroke="#333" stroke-width="1.5"/>
<text x="281.2" y="160.2" text-anchor="middle" font-family="Arial" font-size="12" fill="#222">94.67</text>
<text x="281.2" y="372" text-anchor="middle" font-family="Arial" font-size="12" font-weight="700">C3</text>
<text x="281.2" y="391" text-anchor="middle" font-family="Arial" font-size="10" fill="#444">Scientific-writing representative</text>
<rect x="370.1" y="180.6" width="79.9" height="161.4" fill="#C44536" rx="3"/>
<line x1="410.0" y1="100.9" x2="410.0" y2="260.3" stroke="#333" stroke-width="1.5"/>
<line x1="403.0" y1="100.9" x2="417.0" y2="100.9" stroke="#333" stroke-width="1.5"/>
<line x1="403.0" y1="260.3" x2="417.0" y2="260.3" stroke="#333" stroke-width="1.5"/>
<text x="410.0" y="172.6" text-anchor="middle" font-family="Arial" font-size="12" fill="#222">94.33</text>
<text x="410.0" y="372" text-anchor="middle" font-family="Arial" font-size="12" font-weight="700">C5</text>
<text x="410.0" y="391" text-anchor="middle" font-family="Arial" font-size="10" fill="#444">Academic writing standards</text>
<rect x="498.9" y="230.2" width="79.9" height="111.8" fill="#F77F00" rx="3"/>
<line x1="538.8" y1="166.6" x2="538.8" y2="293.9" stroke="#333" stroke-width="1.5"/>
<line x1="531.8" y1="166.6" x2="545.8" y2="166.6" stroke="#333" stroke-width="1.5"/>
<line x1="531.8" y1="293.9" x2="545.8" y2="293.9" stroke="#333" stroke-width="1.5"/>
<text x="538.8" y="222.2" text-anchor="middle" font-family="Arial" font-size="12" fill="#222">93.00</text>
<text x="538.8" y="372" text-anchor="middle" font-family="Arial" font-size="12" font-weight="700">C4</text>
<text x="538.8" y="391" text-anchor="middle" font-family="Arial" font-size="10" fill="#444">Scientific-writing alternative</text>
<rect x="627.7" y="267.5" width="79.9" height="74.5" fill="#9B5DE5" rx="3"/>
<line x1="667.6" y1="226.0" x2="667.6" y2="309.0" stroke="#333" stroke-width="1.5"/>
<line x1="660.6" y1="226.0" x2="674.6" y2="226.0" stroke="#333" stroke-width="1.5"/>
<line x1="660.6" y1="309.0" x2="674.6" y2="309.0" stroke="#333" stroke-width="1.5"/>
<text x="667.6" y="259.5" text-anchor="middle" font-family="Arial" font-size="12" fill="#222">92.00</text>
<text x="667.6" y="372" text-anchor="middle" font-family="Arial" font-size="12" font-weight="700">C2</text>
<text x="667.6" y="391" text-anchor="middle" font-family="Arial" font-size="10" fill="#444">No-skill baseline</text>
<line x1="88" y1="342" x2="732" y2="342" stroke="#333"/>
</svg>