<svg xmlns="http://www.w3.org/2000/svg" width="525" height="477" viewBox="0 0 525 477">
<rect width="100%" height="100%" fill="white"/>
<text x="24" y="28" font-family="Arial" font-size="18" font-weight="700">Pairwise win rate by condition</text>
<text x="24" y="46" font-family="Arial" font-size="11" fill="#555">Cell = row condition preferred over column condition</text>
<text x="162.0" y="50" text-anchor="middle" font-family="Arial" font-size="12" font-weight="700">C1</text>
<text x="236.0" y="50" text-anchor="middle" font-family="Arial" font-size="12" font-weight="700">C2</text>
<text x="310.0" y="50" text-anchor="middle" font-family="Arial" font-size="12" font-weight="700">C3</text>
<text x="384.0" y="50" text-anchor="middle" font-family="Arial" font-size="12" font-weight="700">C4</text>
<text x="458.0" y="50" text-anchor="middle" font-family="Arial" font-size="12" font-weight="700">C5</text>
<text x="24" y="103.0" font-family="Arial" font-size="12" font-weight="700">C1</text>
<rect x="125" y="62" width="71" height="71" fill="#f3f4f6" rx="4"/>
<text x="162.0" y="103.0" text-anchor="middle" font-family="Arial" font-size="13" fill="#777">-</text>
<rect x="199" y="62" width="71" height="71" fill="#4780a2" rx="4"/>
<text x="236.0" y="103.0" text-anchor="middle" font-family="Arial" font-size="13" fill="white">0.87</text>
<rect x="273" y="62" width="71" height="71" fill="#5489a9" rx="4"/>
<text x="310.0" y="103.0" text-anchor="middle" font-family="Arial" font-size="13" fill="white">0.80</text>
<rect x="347" y="62" width="71" height="71" fill="#6e9bb6" rx="4"/>
<text x="384.0" y="103.0" text-anchor="middle" font-family="Arial" font-size="13" fill="white">0.67</text>
<rect x="421" y="62" width="71" height="71" fill="#87acc3" rx="4"/>
<text x="458.0" y="103.0" text-anchor="middle" font-family="Arial" font-size="13" fill="#222">0.53</text>
<text x="24" y="177.0" font-family="Arial" font-size="12" font-weight="700">C2</text>
<rect x="125" y="136" width="71" height="71" fill="#d4e1ea" rx="4"/>
<text x="162.0" y="177.0" text-anchor="middle" font-family="Arial" font-size="13" fill="#222">0.13</text>
<rect x="199" y="136" width="71" height="71" fill="#f3f4f6" rx="4"/>
<text x="236.0" y="177.0" text-anchor="middle" font-family="Arial" font-size="13" fill="#777">-</text>
<rect x="273" y="136" width="71" height="71" fill="#adc6d6" rx="4"/>
<text x="310.0" y="177.0" text-anchor="middle" font-family="Arial" font-size="13" fill="#222">0.33</text>
<rect x="347" y="136" width="71" height="71" fill="#87acc3" rx="4"/>
<text x="384.0" y="177.0" text-anchor="middle" font-family="Arial" font-size="13" fill="#222">0.53</text>
<rect x="421" y="136" width="71" height="71" fill="#a1bed0" rx="4"/>
<text x="458.0" y="177.0" text-anchor="middle" font-family="Arial" font-size="13" fill="#222">0.40</text>
<text x="24" y="251.0" font-family="Arial" font-size="12" font-weight="700">C3</text>
<rect x="125" y="210" width="71" height="71" fill="#c7d8e3" rx="4"/>
<text x="162.0" y="251.0" text-anchor="middle" font-family="Arial" font-size="13" fill="#222">0.20</text>
<rect x="199" y="210" width="71" height="71" fill="#6e9bb6" rx="4"/>
<text x="236.0" y="251.0" text-anchor="middle" font-family="Arial" font-size="13" fill="white">0.67</text>
<rect x="273" y="210" width="71" height="71" fill="#f3f4f6" rx="4"/>
<text x="310.0" y="251.0" text-anchor="middle" font-family="Arial" font-size="13" fill="#777">-</text>
<rect x="347" y="210" width="71" height="71" fill="#5489a9" rx="4"/>
<text x="384.0" y="251.0" text-anchor="middle" font-family="Arial" font-size="13" fill="white">0.80</text>
<rect x="421" y="210" width="71" height="71" fill="#7aa3bc" rx="4"/>
<text x="458.0" y="251.0" text-anchor="middle" font-family="Arial" font-size="13" fill="#222">0.60</text>
<text x="24" y="325.0" font-family="Arial" font-size="12" font-weight="700">C4</text>
<rect x="125" y="284" width="71" height="71" fill="#adc6d6" rx="4"/>
<text x="162.0" y="325.0" text-anchor="middle" font-family="Arial" font-size="13" fill="#222">0.33</text>
<rect x="199" y="284" width="71" height="71" fill="#94b5c9" rx="4"/>
<text x="236.0" y="325.0" text-anchor="middle" font-family="Arial" font-size="13" fill="#222">0.47</text>
<rect x="273" y="284" width="71" height="71" fill="#c7d8e3" rx="4"/>
<text x="310.0" y="325.0" text-anchor="middle" font-family="Arial" font-size="13" fill="#222">0.20</text>
<rect x="347" y="284" width="71" height="71" fill="#f3f4f6" rx="4"/>
<text x="384.0" y="325.0" text-anchor="middle" font-family="Arial" font-size="13" fill="#777">-</text>
<rect x="421" y="284" width="71" height="71" fill="#94b5c9" rx="4"/>
<text x="458.0" y="325.0" text-anchor="middle" font-family="Arial" font-size="13" fill="#222">0.47</text>
<text x="24" y="399.0" font-family="Arial" font-size="12" font-weight="700">C5</text>
<rect x="125" y="358" width="71" height="71" fill="#94b5c9" rx="4"/>
<text x="162.0" y="399.0" text-anchor="middle" font-family="Arial" font-size="13" fill="#222">0.47</text>
<rect x="199" y="358" width="71" height="71" fill="#7aa3bc" rx="4"/>
<text x="236.0" y="399.0" text-anchor="middle" font-family="Arial" font-size="13" fill="#222">0.60</text>
<rect x="273" y="358" width="71" height="71" fill="#a1bed0" rx="4"/>
<text x="310.0" y="399.0" text-anchor="middle" font-family="Arial" font-size="13" fill="#222">0.40</text>
<rect x="347" y="358" width="71" height="71" fill="#87acc3" rx="4"/>
<text x="384.0" y="399.0" text-anchor="middle" font-family="Arial" font-size="13" fill="#222">0.53</text>
<rect x="421" y="358" width="71" height="71" fill="#f3f4f6" rx="4"/>
<text x="458.0" y="399.0" text-anchor="middle" font-family="Arial" font-size="13" fill="#777">-</text>
</svg>