<svg xmlns="http://www.w3.org/2000/svg" width="980" height="540" viewBox="0 0 980 540">
<rect width="100%" height="100%" fill="white"/>
<text x="24" y="30" font-family="Arial" font-size="18" font-weight="700">Blinded total score distribution by authoring setting</text>
<line x1="86" y1="362.7" x2="946" y2="362.7" stroke="#e5e7eb"/>
<text x="76" y="366.7" text-anchor="end" font-family="Arial" font-size="11" fill="#555">82</text>
<line x1="86" y1="328.2" x2="946" y2="328.2" stroke="#e5e7eb"/>
<text x="76" y="332.2" text-anchor="end" font-family="Arial" font-size="11" fill="#555">84</text>
<line x1="86" y1="293.7" x2="946" y2="293.7" stroke="#e5e7eb"/>
<text x="76" y="297.7" text-anchor="end" font-family="Arial" font-size="11" fill="#555">86</text>
<line x1="86" y1="259.2" x2="946" y2="259.2" stroke="#e5e7eb"/>
<text x="76" y="263.2" text-anchor="end" font-family="Arial" font-size="11" fill="#555">88</text>
<line x1="86" y1="224.6" x2="946" y2="224.6" stroke="#e5e7eb"/>
<text x="76" y="228.6" text-anchor="end" font-family="Arial" font-size="11" fill="#555">90</text>
<line x1="86" y1="190.1" x2="946" y2="190.1" stroke="#e5e7eb"/>
<text x="76" y="194.1" text-anchor="end" font-family="Arial" font-size="11" fill="#555">92</text>
<line x1="86" y1="155.6" x2="946" y2="155.6" stroke="#e5e7eb"/>
<text x="76" y="159.6" text-anchor="end" font-family="Arial" font-size="11" fill="#555">94</text>
<line x1="86" y1="121.1" x2="946" y2="121.1" stroke="#e5e7eb"/>
<text x="76" y="125.1" text-anchor="end" font-family="Arial" font-size="11" fill="#555">96</text>
<line x1="86" y1="86.5" x2="946" y2="86.5" stroke="#e5e7eb"/>
<text x="76" y="90.5" text-anchor="end" font-family="Arial" font-size="11" fill="#555">98</text>
<line x1="86" y1="52.0" x2="946" y2="52.0" stroke="#e5e7eb"/>
<text x="76" y="56.0" text-anchor="end" font-family="Arial" font-size="11" fill="#555">100</text>
<line x1="86" y1="52" x2="86" y2="380" stroke="#333"/>
<line x1="86" y1="380" x2="946" y2="380" stroke="#333"/>
<line x1="172.0" y1="52.0" x2="172.0" y2="207.4" stroke="#333" stroke-width="1.5"/>
<line x1="150.2" y1="52.0" x2="193.8" y2="52.0" stroke="#333" stroke-width="1.5"/>
<line x1="150.2" y1="207.4" x2="193.8" y2="207.4" stroke="#333" stroke-width="1.5"/>
<rect x="139.3" y="95.2" width="65.4" height="69.1" fill="#2E6F95" fill-opacity="0.72" stroke="#222" rx="3"/>
<line x1="139.3" y1="121.1" x2="204.7" y2="121.1" stroke="#111" stroke-width="2"/>
<circle cx="165.2" cy="207.4" r="2.4" fill="#111" opacity="0.42"/>
<circle cx="168.6" cy="190.1" r="2.4" fill="#111" opacity="0.42"/>
<circle cx="172.0" cy="172.8" r="2.4" fill="#111" opacity="0.42"/>
<circle cx="175.4" cy="172.8" r="2.4" fill="#111" opacity="0.42"/>
<circle cx="178.8" cy="155.6" r="2.4" fill="#111" opacity="0.42"/>
<circle cx="165.2" cy="155.6" r="2.4" fill="#111" opacity="0.42"/>
<circle cx="168.6" cy="138.3" r="2.4" fill="#111" opacity="0.42"/>
<circle cx="172.0" cy="121.1" r="2.4" fill="#111" opacity="0.42"/>
<circle cx="175.4" cy="103.8" r="2.4" fill="#111" opacity="0.42"/>
<circle cx="178.8" cy="103.8" r="2.4" fill="#111" opacity="0.42"/>
<circle cx="165.2" cy="103.8" r="2.4" fill="#111" opacity="0.42"/>
<circle cx="168.6" cy="86.5" r="2.4" fill="#111" opacity="0.42"/>
<circle cx="172.0" cy="69.3" r="2.4" fill="#111" opacity="0.42"/>
<circle cx="175.4" cy="69.3" r="2.4" fill="#111" opacity="0.42"/>
<circle cx="178.8" cy="52.0" r="2.4" fill="#111" opacity="0.42"/>
<text x="172.0" y="402.0" transform="rotate(30 172.0 402.0)" text-anchor="start" font-family="Arial" font-size="11" fill="#333">reader-aware-writing</text>
<line x1="344.0" y1="86.5" x2="344.0" y2="241.9" stroke="#333" stroke-width="1.5"/>
<line x1="322.2" y1="86.5" x2="365.8" y2="86.5" stroke="#333" stroke-width="1.5"/>
<line x1="322.2" y1="241.9" x2="365.8" y2="241.9" stroke="#333" stroke-width="1.5"/>
<rect x="311.3" y="103.8" width="65.4" height="77.7" fill="#00A676" fill-opacity="0.72" stroke="#222" rx="3"/>
<line x1="311.3" y1="121.1" x2="376.7" y2="121.1" stroke="#111" stroke-width="2"/>
<circle cx="337.2" cy="241.9" r="2.4" fill="#111" opacity="0.42"/>
<circle cx="340.6" cy="241.9" r="2.4" fill="#111" opacity="0.42"/>
<circle cx="344.0" cy="207.4" r="2.4" fill="#111" opacity="0.42"/>
<circle cx="347.4" cy="190.1" r="2.4" fill="#111" opacity="0.42"/>
<circle cx="350.8" cy="172.8" r="2.4" fill="#111" opacity="0.42"/>
<circle cx="337.2" cy="155.6" r="2.4" fill="#111" opacity="0.42"/>
<circle cx="340.6" cy="138.3" r="2.4" fill="#111" opacity="0.42"/>
<circle cx="344.0" cy="121.1" r="2.4" fill="#111" opacity="0.42"/>
<circle cx="347.4" cy="103.8" r="2.4" fill="#111" opacity="0.42"/>
<circle cx="350.8" cy="103.8" r="2.4" fill="#111" opacity="0.42"/>
<circle cx="337.2" cy="103.8" r="2.4" fill="#111" opacity="0.42"/>
<circle cx="340.6" cy="103.8" r="2.4" fill="#111" opacity="0.42"/>
<circle cx="344.0" cy="103.8" r="2.4" fill="#111" opacity="0.42"/>
<circle cx="347.4" cy="86.5" r="2.4" fill="#111" opacity="0.42"/>
<circle cx="350.8" cy="86.5" r="2.4" fill="#111" opacity="0.42"/>
<text x="344.0" y="402.0" transform="rotate(30 344.0 402.0)" text-anchor="start" font-family="Arial" font-size="11" fill="#333">Scientific-writing representative</text>
<line x1="516.0" y1="69.3" x2="516.0" y2="259.2" stroke="#333" stroke-width="1.5"/>
<line x1="494.2" y1="69.3" x2="537.8" y2="69.3" stroke="#333" stroke-width="1.5"/>
<line x1="494.2" y1="259.2" x2="537.8" y2="259.2" stroke="#333" stroke-width="1.5"/>
<rect x="483.3" y="103.8" width="65.4" height="77.7" fill="#C44536" fill-opacity="0.72" stroke="#222" rx="3"/>
<line x1="483.3" y1="155.6" x2="548.7" y2="155.6" stroke="#111" stroke-width="2"/>
<circle cx="509.2" cy="259.2" r="2.4" fill="#111" opacity="0.42"/>
<circle cx="512.6" cy="224.6" r="2.4" fill="#111" opacity="0.42"/>
<circle cx="516.0" cy="207.4" r="2.4" fill="#111" opacity="0.42"/>
<circle cx="519.4" cy="190.1" r="2.4" fill="#111" opacity="0.42"/>
<circle cx="522.8" cy="172.8" r="2.4" fill="#111" opacity="0.42"/>
<circle cx="509.2" cy="172.8" r="2.4" fill="#111" opacity="0.42"/>
<circle cx="512.6" cy="155.6" r="2.4" fill="#111" opacity="0.42"/>
<circle cx="516.0" cy="155.6" r="2.4" fill="#111" opacity="0.42"/>
<circle cx="519.4" cy="138.3" r="2.4" fill="#111" opacity="0.42"/>
<circle cx="522.8" cy="121.1" r="2.4" fill="#111" opacity="0.42"/>
<circle cx="509.2" cy="103.8" r="2.4" fill="#111" opacity="0.42"/>
<circle cx="512.6" cy="103.8" r="2.4" fill="#111" opacity="0.42"/>
<circle cx="516.0" cy="86.5" r="2.4" fill="#111" opacity="0.42"/>
<circle cx="519.4" cy="86.5" r="2.4" fill="#111" opacity="0.42"/>
<circle cx="522.8" cy="69.3" r="2.4" fill="#111" opacity="0.42"/>
<text x="516.0" y="402.0" transform="rotate(30 516.0 402.0)" text-anchor="start" font-family="Arial" font-size="11" fill="#333">Academic writing standards</text>
<line x1="688.0" y1="86.5" x2="688.0" y2="310.9" stroke="#333" stroke-width="1.5"/>
<line x1="666.2" y1="86.5" x2="709.8" y2="86.5" stroke="#333" stroke-width="1.5"/>
<line x1="666.2" y1="310.9" x2="709.8" y2="310.9" stroke="#333" stroke-width="1.5"/>
<rect x="655.3" y="121.1" width="65.4" height="86.3" fill="#F77F00" fill-opacity="0.72" stroke="#222" rx="3"/>
<line x1="655.3" y1="172.8" x2="720.7" y2="172.8" stroke="#111" stroke-width="2"/>
<circle cx="681.2" cy="310.9" r="2.4" fill="#111" opacity="0.42"/>
<circle cx="684.6" cy="276.4" r="2.4" fill="#111" opacity="0.42"/>
<circle cx="688.0" cy="224.6" r="2.4" fill="#111" opacity="0.42"/>
<circle cx="691.4" cy="207.4" r="2.4" fill="#111" opacity="0.42"/>
<circle cx="694.8" cy="207.4" r="2.4" fill="#111" opacity="0.42"/>
<circle cx="681.2" cy="190.1" r="2.4" fill="#111" opacity="0.42"/>
<circle cx="684.6" cy="172.8" r="2.4" fill="#111" opacity="0.42"/>
<circle cx="688.0" cy="172.8" r="2.4" fill="#111" opacity="0.42"/>
<circle cx="691.4" cy="155.6" r="2.4" fill="#111" opacity="0.42"/>
<circle cx="694.8" cy="155.6" r="2.4" fill="#111" opacity="0.42"/>
<circle cx="681.2" cy="121.1" r="2.4" fill="#111" opacity="0.42"/>
<circle cx="684.6" cy="121.1" r="2.4" fill="#111" opacity="0.42"/>
<circle cx="688.0" cy="103.8" r="2.4" fill="#111" opacity="0.42"/>
<circle cx="691.4" cy="86.5" r="2.4" fill="#111" opacity="0.42"/>
<circle cx="694.8" cy="86.5" r="2.4" fill="#111" opacity="0.42"/>
<text x="688.0" y="402.0" transform="rotate(30 688.0 402.0)" text-anchor="start" font-family="Arial" font-size="11" fill="#333">Scientific-writing alternative</text>
<line x1="860.0" y1="86.5" x2="860.0" y2="345.5" stroke="#333" stroke-width="1.5"/>
<line x1="838.2" y1="86.5" x2="881.8" y2="86.5" stroke="#333" stroke-width="1.5"/>
<line x1="838.2" y1="345.5" x2="881.8" y2="345.5" stroke="#333" stroke-width="1.5"/>
<rect x="827.3" y="129.7" width="65.4" height="103.6" fill="#9B5DE5" fill-opacity="0.72" stroke="#222" rx="3"/>
<line x1="827.3" y1="190.1" x2="892.7" y2="190.1" stroke="#111" stroke-width="2"/>
<circle cx="853.2" cy="345.5" r="2.4" fill="#111" opacity="0.42"/>
<circle cx="856.6" cy="293.7" r="2.4" fill="#111" opacity="0.42"/>
<circle cx="860.0" cy="276.4" r="2.4" fill="#111" opacity="0.42"/>
<circle cx="863.4" cy="241.9" r="2.4" fill="#111" opacity="0.42"/>
<circle cx="866.8" cy="224.6" r="2.4" fill="#111" opacity="0.42"/>
<circle cx="853.2" cy="224.6" r="2.4" fill="#111" opacity="0.42"/>
<circle cx="856.6" cy="224.6" r="2.4" fill="#111" opacity="0.42"/>
<circle cx="860.0" cy="190.1" r="2.4" fill="#111" opacity="0.42"/>
<circle cx="863.4" cy="155.6" r="2.4" fill="#111" opacity="0.42"/>
<circle cx="866.8" cy="155.6" r="2.4" fill="#111" opacity="0.42"/>
<circle cx="853.2" cy="138.3" r="2.4" fill="#111" opacity="0.42"/>
<circle cx="856.6" cy="121.1" r="2.4" fill="#111" opacity="0.42"/>
<circle cx="860.0" cy="86.5" r="2.4" fill="#111" opacity="0.42"/>
<circle cx="863.4" cy="86.5" r="2.4" fill="#111" opacity="0.42"/>
<circle cx="866.8" cy="86.5" r="2.4" fill="#111" opacity="0.42"/>
<text x="860.0" y="402.0" transform="rotate(30 860.0 402.0)" text-anchor="start" font-family="Arial" font-size="11" fill="#333">No-skill baseline</text>
<text x="490.0" y="522" text-anchor="middle" font-family="Arial" font-size="13" fill="#222">Authoring setting</text>
<text x="24" y="216.0" transform="rotate(-90 24 216.0)" text-anchor="middle" font-family="Arial" font-size="13" fill="#222">Total score</text>
</svg>