<svg xmlns="http://www.w3.org/2000/svg" width="640" height="360" viewBox="0 0 640 360">
<rect width="100%" height="100%" fill="white"/>
<text x="24" y="28" font-family="Arial" font-size="18" font-weight="700">Mean score by presentation position</text>
<line x1="74" y1="302.0" x2="614" y2="302.0" stroke="#e6e6e6"/>
<text x="64" y="306.0" text-anchor="end" font-family="Arial" font-size="11" fill="#555">90</text>
<line x1="74" y1="276.2" x2="614" y2="276.2" stroke="#e6e6e6"/>
<text x="64" y="280.2" text-anchor="end" font-family="Arial" font-size="11" fill="#555">91</text>
<line x1="74" y1="250.4" x2="614" y2="250.4" stroke="#e6e6e6"/>
<text x="64" y="254.4" text-anchor="end" font-family="Arial" font-size="11" fill="#555">92</text>
<line x1="74" y1="224.6" x2="614" y2="224.6" stroke="#e6e6e6"/>
<text x="64" y="228.6" text-anchor="end" font-family="Arial" font-size="11" fill="#555">93</text>
<line x1="74" y1="198.8" x2="614" y2="198.8" stroke="#e6e6e6"/>
<text x="64" y="202.8" text-anchor="end" font-family="Arial" font-size="11" fill="#555">94</text>
<line x1="74" y1="173.0" x2="614" y2="173.0" stroke="#e6e6e6"/>
<text x="64" y="177.0" text-anchor="end" font-family="Arial" font-size="11" fill="#555">95</text>
<line x1="74" y1="147.2" x2="614" y2="147.2" stroke="#e6e6e6"/>
<text x="64" y="151.2" text-anchor="end" font-family="Arial" font-size="11" fill="#555">96</text>
<line x1="74" y1="121.4" x2="614" y2="121.4" stroke="#e6e6e6"/>
<text x="64" y="125.4" text-anchor="end" font-family="Arial" font-size="11" fill="#555">97</text>
<line x1="74" y1="95.6" x2="614" y2="95.6" stroke="#e6e6e6"/>
<text x="64" y="99.6" text-anchor="end" font-family="Arial" font-size="11" fill="#555">98</text>
<line x1="74" y1="69.8" x2="614" y2="69.8" stroke="#e6e6e6"/>
<text x="64" y="73.8" text-anchor="end" font-family="Arial" font-size="11" fill="#555">99</text>
<line x1="74" y1="44.0" x2="614" y2="44.0" stroke="#e6e6e6"/>
<text x="64" y="48.0" text-anchor="end" font-family="Arial" font-size="11" fill="#555">100</text>
<polyline points="74.0,114.5 209.0,136.9 344.0,234.9 479.0,243.5 614.0,233.2" fill="none" stroke="#2E6F95" stroke-width="3"/>
<circle cx="74.0" cy="114.5" r="5" fill="#F77F00"/>
<text x="74.0" y="102.5" text-anchor="middle" font-family="Arial" font-size="12">97.27</text>
<text x="74.0" y="332" text-anchor="middle" font-family="Arial" font-size="12">Position 1</text>
<circle cx="209.0" cy="136.9" r="5" fill="#F77F00"/>
<text x="209.0" y="124.9" text-anchor="middle" font-family="Arial" font-size="12">96.40</text>
<text x="209.0" y="332" text-anchor="middle" font-family="Arial" font-size="12">Position 2</text>
<circle cx="344.0" cy="234.9" r="5" fill="#F77F00"/>
<text x="344.0" y="222.9" text-anchor="middle" font-family="Arial" font-size="12">92.60</text>
<text x="344.0" y="332" text-anchor="middle" font-family="Arial" font-size="12">Position 3</text>
<circle cx="479.0" cy="243.5" r="5" fill="#F77F00"/>
<text x="479.0" y="231.5" text-anchor="middle" font-family="Arial" font-size="12">92.27</text>
<text x="479.0" y="332" text-anchor="middle" font-family="Arial" font-size="12">Position 4</text>
<circle cx="614.0" cy="233.2" r="5" fill="#F77F00"/>
<text x="614.0" y="221.2" text-anchor="middle" font-family="Arial" font-size="12">92.67</text>
<text x="614.0" y="332" text-anchor="middle" font-family="Arial" font-size="12">Position 5</text>
</svg>