<svg xmlns="http://www.w3.org/2000/svg" width="965" height="410" viewBox="0 0 965 410">
<rect width="100%" height="100%" fill="#ffffff"/>
<text x="482.5" y="30.0" font-size="20" font-family="Arial, Helvetica, sans-serif" text-anchor="middle">Mean rubric score by condition</text>
<text x="215.0" y="75.0" font-size="10" font-family="Arial, Helvetica, sans-serif" text-anchor="middle">Scientific fidelity</text>
<text x="325.0" y="75.0" font-size="10" font-family="Arial, Helvetica, sans-serif" text-anchor="middle">Article structure</text>
<text x="435.0" y="75.0" font-size="10" font-family="Arial, Helvetica, sans-serif" text-anchor="middle">Reader orientation</text>
<text x="545.0" y="75.0" font-size="10" font-family="Arial, Helvetica, sans-serif" text-anchor="middle">Cohesion/coherence</text>
<text x="655.0" y="75.0" font-size="10" font-family="Arial, Helvetica, sans-serif" text-anchor="middle">Evidence/uncertainty</text>
<text x="765.0" y="75.0" font-size="10" font-family="Arial, Helvetica, sans-serif" text-anchor="middle">Style/readability</text>
<text x="875.0" y="75.0" font-size="10" font-family="Arial, Helvetica, sans-serif" text-anchor="middle">Constraint following</text>
<text x="20.0" y="137.0" font-size="12" font-family="Arial, Helvetica, sans-serif" text-anchor="start">C1 Reader-aware</text>
<rect x="160.0" y="105.0" width="107" height="49" fill="#3b9ed7" stroke="#ffffff"/>
<text x="215.0" y="136.0" font-size="13" font-family="Arial, Helvetica, sans-serif" text-anchor="middle">19.6</text>
<rect x="270.0" y="105.0" width="107" height="49" fill="#3b9ed7" stroke="#ffffff"/>
<text x="325.0" y="136.0" font-size="13" font-family="Arial, Helvetica, sans-serif" text-anchor="middle">14.7</text>
<rect x="380.0" y="105.0" width="107" height="49" fill="#3fa1d8" stroke="#ffffff"/>
<text x="435.0" y="136.0" font-size="13" font-family="Arial, Helvetica, sans-serif" text-anchor="middle">14.3</text>
<rect x="490.0" y="105.0" width="107" height="49" fill="#4ca6da" stroke="#ffffff"/>
<text x="545.0" y="136.0" font-size="13" font-family="Arial, Helvetica, sans-serif" text-anchor="middle">17.8</text>
<rect x="600.0" y="105.0" width="107" height="49" fill="#4aa6da" stroke="#ffffff"/>
<text x="655.0" y="136.0" font-size="13" font-family="Arial, Helvetica, sans-serif" text-anchor="middle">13.4</text>
<rect x="710.0" y="105.0" width="107" height="49" fill="#45a4d9" stroke="#ffffff"/>
<text x="765.0" y="136.0" font-size="13" font-family="Arial, Helvetica, sans-serif" text-anchor="middle">9.2</text>
<rect x="820.0" y="105.0" width="107" height="49" fill="#65b2df" stroke="#ffffff"/>
<text x="875.0" y="136.0" font-size="13" font-family="Arial, Helvetica, sans-serif" text-anchor="middle">3.8</text>
<text x="20.0" y="189.0" font-size="12" font-family="Arial, Helvetica, sans-serif" text-anchor="start">C2 No skill</text>
<rect x="160.0" y="157.0" width="107" height="49" fill="#3a9ed7" stroke="#ffffff"/>
<text x="215.0" y="188.0" font-size="13" font-family="Arial, Helvetica, sans-serif" text-anchor="middle">19.7</text>
<rect x="270.0" y="157.0" width="107" height="49" fill="#3ea0d8" stroke="#ffffff"/>
<text x="325.0" y="188.0" font-size="13" font-family="Arial, Helvetica, sans-serif" text-anchor="middle">14.4</text>
<rect x="380.0" y="157.0" width="107" height="49" fill="#40a1d8" stroke="#ffffff"/>
<text x="435.0" y="188.0" font-size="13" font-family="Arial, Helvetica, sans-serif" text-anchor="middle">14.2</text>
<rect x="490.0" y="157.0" width="107" height="49" fill="#4ca6da" stroke="#ffffff"/>
<text x="545.0" y="188.0" font-size="13" font-family="Arial, Helvetica, sans-serif" text-anchor="middle">17.8</text>
<rect x="600.0" y="157.0" width="107" height="49" fill="#4ca7da" stroke="#ffffff"/>
<text x="655.0" y="188.0" font-size="13" font-family="Arial, Helvetica, sans-serif" text-anchor="middle">13.3</text>
<rect x="710.0" y="157.0" width="107" height="49" fill="#4aa6da" stroke="#ffffff"/>
<text x="765.0" y="188.0" font-size="13" font-family="Arial, Helvetica, sans-serif" text-anchor="middle">9.0</text>
<rect x="820.0" y="157.0" width="107" height="49" fill="#65b2df" stroke="#ffffff"/>
<text x="875.0" y="188.0" font-size="13" font-family="Arial, Helvetica, sans-serif" text-anchor="middle">3.8</text>
<text x="20.0" y="241.0" font-size="12" font-family="Arial, Helvetica, sans-serif" text-anchor="start">C3 Sci-writing A</text>
<rect x="160.0" y="209.0" width="107" height="49" fill="#399dd7" stroke="#ffffff"/>
<text x="215.0" y="240.0" font-size="13" font-family="Arial, Helvetica, sans-serif" text-anchor="middle">19.8</text>
<rect x="270.0" y="209.0" width="107" height="49" fill="#3ea0d8" stroke="#ffffff"/>
<text x="325.0" y="240.0" font-size="13" font-family="Arial, Helvetica, sans-serif" text-anchor="middle">14.4</text>
<rect x="380.0" y="209.0" width="107" height="49" fill="#40a1d8" stroke="#ffffff"/>
<text x="435.0" y="240.0" font-size="13" font-family="Arial, Helvetica, sans-serif" text-anchor="middle">14.2</text>
<rect x="490.0" y="209.0" width="107" height="49" fill="#4da7db" stroke="#ffffff"/>
<text x="545.0" y="240.0" font-size="13" font-family="Arial, Helvetica, sans-serif" text-anchor="middle">17.7</text>
<rect x="600.0" y="209.0" width="107" height="49" fill="#4ea8db" stroke="#ffffff"/>
<text x="655.0" y="240.0" font-size="13" font-family="Arial, Helvetica, sans-serif" text-anchor="middle">13.1</text>
<rect x="710.0" y="209.0" width="107" height="49" fill="#4ca6da" stroke="#ffffff"/>
<text x="765.0" y="240.0" font-size="13" font-family="Arial, Helvetica, sans-serif" text-anchor="middle">8.9</text>
<rect x="820.0" y="209.0" width="107" height="49" fill="#69b4e0" stroke="#ffffff"/>
<text x="875.0" y="240.0" font-size="13" font-family="Arial, Helvetica, sans-serif" text-anchor="middle">3.7</text>
<text x="20.0" y="293.0" font-size="12" font-family="Arial, Helvetica, sans-serif" text-anchor="start">C4 Sci-writing B</text>
<rect x="160.0" y="261.0" width="107" height="49" fill="#3a9ed7" stroke="#ffffff"/>
<text x="215.0" y="292.0" font-size="13" font-family="Arial, Helvetica, sans-serif" text-anchor="middle">19.7</text>
<rect x="270.0" y="261.0" width="107" height="49" fill="#3ea0d8" stroke="#ffffff"/>
<text x="325.0" y="292.0" font-size="13" font-family="Arial, Helvetica, sans-serif" text-anchor="middle">14.4</text>
<rect x="380.0" y="261.0" width="107" height="49" fill="#45a3d9" stroke="#ffffff"/>
<text x="435.0" y="292.0" font-size="13" font-family="Arial, Helvetica, sans-serif" text-anchor="middle">13.9</text>
<rect x="490.0" y="261.0" width="107" height="49" fill="#4fa8db" stroke="#ffffff"/>
<text x="545.0" y="292.0" font-size="13" font-family="Arial, Helvetica, sans-serif" text-anchor="middle">17.4</text>
<rect x="600.0" y="261.0" width="107" height="49" fill="#50a9db" stroke="#ffffff"/>
<text x="655.0" y="292.0" font-size="13" font-family="Arial, Helvetica, sans-serif" text-anchor="middle">13.0</text>
<rect x="710.0" y="261.0" width="107" height="49" fill="#4aa6da" stroke="#ffffff"/>
<text x="765.0" y="292.0" font-size="13" font-family="Arial, Helvetica, sans-serif" text-anchor="middle">9.0</text>
<rect x="820.0" y="261.0" width="107" height="49" fill="#69b4e0" stroke="#ffffff"/>
<text x="875.0" y="292.0" font-size="13" font-family="Arial, Helvetica, sans-serif" text-anchor="middle">3.7</text>
<text x="20.0" y="345.0" font-size="12" font-family="Arial, Helvetica, sans-serif" text-anchor="start">C5 Academic std.</text>
<rect x="160.0" y="313.0" width="107" height="49" fill="#43a2d9" stroke="#ffffff"/>
<text x="215.0" y="344.0" font-size="13" font-family="Arial, Helvetica, sans-serif" text-anchor="middle">18.7</text>
<rect x="270.0" y="313.0" width="107" height="49" fill="#47a4da" stroke="#ffffff"/>
<text x="325.0" y="344.0" font-size="13" font-family="Arial, Helvetica, sans-serif" text-anchor="middle">13.7</text>
<rect x="380.0" y="313.0" width="107" height="49" fill="#49a5da" stroke="#ffffff"/>
<text x="435.0" y="344.0" font-size="13" font-family="Arial, Helvetica, sans-serif" text-anchor="middle">13.6</text>
<rect x="490.0" y="313.0" width="107" height="49" fill="#59addd" stroke="#ffffff"/>
<text x="545.0" y="344.0" font-size="13" font-family="Arial, Helvetica, sans-serif" text-anchor="middle">16.3</text>
<rect x="600.0" y="313.0" width="107" height="49" fill="#5baedd" stroke="#ffffff"/>
<text x="655.0" y="344.0" font-size="13" font-family="Arial, Helvetica, sans-serif" text-anchor="middle">12.1</text>
<rect x="710.0" y="313.0" width="107" height="49" fill="#52a9dc" stroke="#ffffff"/>
<text x="765.0" y="344.0" font-size="13" font-family="Arial, Helvetica, sans-serif" text-anchor="middle">8.6</text>
<rect x="820.0" y="313.0" width="107" height="49" fill="#69b4e0" stroke="#ffffff"/>
<text x="875.0" y="344.0" font-size="13" font-family="Arial, Helvetica, sans-serif" text-anchor="middle">3.7</text>
</svg>