<svg xmlns="http://www.w3.org/2000/svg" width="760" height="470" viewBox="0 0 760 470">
<rect width="100%" height="100%" fill="#ffffff"/>
<text x="380.0" y="30.0" font-size="20" font-family="Arial, Helvetica, sans-serif" text-anchor="middle">Reader-centered score versus scientific reliability</text>
<line x1="85.0" y1="55" x2="85.0" y2="400" stroke="#eeeeee"/>
<line x1="85" y1="400.0" x2="725" y2="400.0" stroke="#eeeeee"/>
<text x="85.0" y="425.0" font-size="10" font-family="Arial, Helvetica, sans-serif" text-anchor="middle">0</text>
<text x="73.0" y="404.0" font-size="10" font-family="Arial, Helvetica, sans-serif" text-anchor="end">0</text>
<line x1="176.4" y1="55" x2="176.4" y2="400" stroke="#eeeeee"/>
<line x1="85" y1="350.7" x2="725" y2="350.7" stroke="#eeeeee"/>
<text x="176.4" y="425.0" font-size="10" font-family="Arial, Helvetica, sans-serif" text-anchor="middle">5</text>
<text x="73.0" y="354.7" font-size="10" font-family="Arial, Helvetica, sans-serif" text-anchor="end">5</text>
<line x1="267.9" y1="55" x2="267.9" y2="400" stroke="#eeeeee"/>
<line x1="85" y1="301.4" x2="725" y2="301.4" stroke="#eeeeee"/>
<text x="267.9" y="425.0" font-size="10" font-family="Arial, Helvetica, sans-serif" text-anchor="middle">10</text>
<text x="73.0" y="305.4" font-size="10" font-family="Arial, Helvetica, sans-serif" text-anchor="end">10</text>
<line x1="359.3" y1="55" x2="359.3" y2="400" stroke="#eeeeee"/>
<line x1="85" y1="252.1" x2="725" y2="252.1" stroke="#eeeeee"/>
<text x="359.3" y="425.0" font-size="10" font-family="Arial, Helvetica, sans-serif" text-anchor="middle">15</text>
<text x="73.0" y="256.1" font-size="10" font-family="Arial, Helvetica, sans-serif" text-anchor="end">15</text>
<line x1="450.7" y1="55" x2="450.7" y2="400" stroke="#eeeeee"/>
<line x1="85" y1="202.9" x2="725" y2="202.9" stroke="#eeeeee"/>
<text x="450.7" y="425.0" font-size="10" font-family="Arial, Helvetica, sans-serif" text-anchor="middle">20</text>
<text x="73.0" y="206.9" font-size="10" font-family="Arial, Helvetica, sans-serif" text-anchor="end">20</text>
<line x1="542.1" y1="55" x2="542.1" y2="400" stroke="#eeeeee"/>
<line x1="85" y1="153.6" x2="725" y2="153.6" stroke="#eeeeee"/>
<text x="542.1" y="425.0" font-size="10" font-family="Arial, Helvetica, sans-serif" text-anchor="middle">25</text>
<text x="73.0" y="157.6" font-size="10" font-family="Arial, Helvetica, sans-serif" text-anchor="end">25</text>
<line x1="633.6" y1="55" x2="633.6" y2="400" stroke="#eeeeee"/>
<line x1="85" y1="104.3" x2="725" y2="104.3" stroke="#eeeeee"/>
<text x="633.6" y="425.0" font-size="10" font-family="Arial, Helvetica, sans-serif" text-anchor="middle">30</text>
<text x="73.0" y="108.3" font-size="10" font-family="Arial, Helvetica, sans-serif" text-anchor="end">30</text>
<line x1="725.0" y1="55" x2="725.0" y2="400" stroke="#eeeeee"/>
<line x1="85" y1="55.0" x2="725" y2="55.0" stroke="#eeeeee"/>
<text x="725.0" y="425.0" font-size="10" font-family="Arial, Helvetica, sans-serif" text-anchor="middle">35</text>
<text x="73.0" y="59.0" font-size="10" font-family="Arial, Helvetica, sans-serif" text-anchor="end">35</text>
<line x1="85" y1="55" x2="85" y2="400" stroke="#333"/>
<line x1="85" y1="400" x2="725" y2="400" stroke="#333"/>
<circle cx="688.4" cy="83.5" r="10" fill="#3465a4" stroke="#222"/>
<text x="702.4" y="87.5" font-size="13" font-family="Arial, Helvetica, sans-serif" text-anchor="start">C1</text>
<circle cx="688.4" cy="84.6" r="10" fill="#7a7a7a" stroke="#222"/>
<text x="702.4" y="88.6" font-size="13" font-family="Arial, Helvetica, sans-serif" text-anchor="start">C2</text>
<circle cx="686.4" cy="85.7" r="10" fill="#2f8f83" stroke="#222"/>
<text x="700.4" y="89.7" font-size="13" font-family="Arial, Helvetica, sans-serif" text-anchor="start">C3</text>
<circle cx="682.3" cy="91.1" r="10" fill="#c07a2b" stroke="#222"/>
<text x="696.3" y="95.1" font-size="13" font-family="Arial, Helvetica, sans-serif" text-anchor="start">C4</text>
<circle cx="647.8" cy="105.4" r="10" fill="#8e5aa9" stroke="#222"/>
<text x="661.8" y="109.4" font-size="13" font-family="Arial, Helvetica, sans-serif" text-anchor="start">C5</text>
<text x="380.0" y="455.0" font-size="12" font-family="Arial, Helvetica, sans-serif" text-anchor="middle">Scientific fidelity + evidence discipline (max 35)</text>
<text x="25.0" y="227.5" font-size="12" font-family="Arial, Helvetica, sans-serif" text-anchor="middle">Reader orientation + cohesion (max 35)</text>
</svg>